<svg xmlns="http://www.w3.org/2000/svg" width="375" viewBox="0 0 375 375" height="375" version="1.0"><defs><clipPath id="a"><path d="M 110.722656 126 L 264.472656 126 L 264.472656 275.5 L 110.722656 275.5 Z M 110.722656 126"/></clipPath><clipPath id="b"><path d="M 158 99.25 L 217 99.25 L 217 112 L 158 112 Z M 158 99.25"/></clipPath></defs><g clip-path="url(#a)"><path fill="#00C2CB" d="M 110.714844 126.058594 L 110.714844 242.832031 L 140.035156 242.832031 L 140.035156 275.28125 L 184.605469 242.832031 L 264.480469 242.832031 L 264.480469 126.058594 Z M 251.667969 230.054688 L 180.425781 230.054688 L 152.847656 250.128906 L 152.847656 230.054688 L 123.527344 230.054688 L 123.527344 138.835938 L 251.667969 138.835938 Z M 251.667969 230.054688"/></g><path fill="#00C2CB" d="M 187.597656 216.1875 C 205.148438 216.1875 219.425781 201.945312 219.425781 184.441406 C 219.425781 166.941406 205.148438 152.699219 187.597656 152.699219 C 170.046875 152.699219 155.769531 166.941406 155.769531 184.441406 C 155.769531 201.945312 170.046875 216.1875 187.597656 216.1875 Z M 187.597656 165.476562 C 198.082031 165.476562 206.613281 173.984375 206.613281 184.441406 C 206.613281 194.902344 198.082031 203.410156 187.597656 203.410156 C 177.109375 203.410156 168.582031 194.902344 168.582031 184.441406 C 168.582031 173.984375 177.109375 165.476562 187.597656 165.476562 Z M 187.597656 165.476562"/><g clip-path="url(#b)"><path fill="#00C2CB" d="M 158.367188 99.210938 L 216.828125 99.210938 L 216.828125 111.988281 L 158.367188 111.988281 Z M 158.367188 99.210938"/></g></svg>