<svg xmlns="http://www.w3.org/2000/svg" width="375" viewBox="0 0 375 375" height="375" version="1.0">
    <g clip-path="url(#a)">
        <path fill="#00C2CB" d="M 40.769531 164.925781 L 40.769531 208.15625 L 51.496094 208.15625 L 51.496094 220.171875 L 67.800781 208.15625 L 97.023438 208.15625 L 97.023438 164.925781 Z M 92.335938 203.425781 L 66.273438 203.425781 L 56.183594 210.859375 L 56.183594 203.425781 L 45.457031 203.425781 L 45.457031 169.65625 L 92.335938 169.65625 Z M 92.335938 203.425781"/>
    </g>
    <path fill="#00C2CB" d="M 68.894531 198.292969 C 75.316406 198.292969 80.539062 193.019531 80.539062 186.542969 C 80.539062 180.0625 75.316406 174.789062 68.894531 174.789062 C 62.476562 174.789062 57.25 180.0625 57.25 186.542969 C 57.25 193.019531 62.476562 198.292969 68.894531 198.292969 Z M 68.894531 179.519531 C 72.730469 179.519531 75.851562 182.671875 75.851562 186.542969 C 75.851562 190.414062 72.730469 193.5625 68.894531 193.5625 C 65.058594 193.5625 61.9375 190.414062 61.9375 186.542969 C 61.9375 182.671875 65.058594 179.519531 68.894531 179.519531 Z M 68.894531 179.519531"/>
    <g clip-path="url(#b)">
        <path fill="#00C2CB" d="M 58.203125 154.988281 L 79.589844 154.988281 L 79.589844 159.71875 L 58.203125 159.71875 Z M 58.203125 154.988281"/>
    </g>
    <g fill="#1B1A1E">
        <path d="M 22.578125 -18 C 22.578125 -16.894531 22.359375 -15.851562 21.921875 -14.875 C 21.109375 -12.976562 19.597656 -11.679688 17.390625 -10.984375 C 16.742188 -10.765625 16.144531 -10.65625 15.59375 -10.65625 C 13.882812 -10.65625 12.359375 -11.097656 11.015625 -11.984375 L 11.015625 -12.34375 C 12.816406 -12.300781 14.269531 -12.890625 15.375 -14.109375 C 16.332031 -15.171875 16.8125 -16.550781 16.8125 -18.25 C 16.8125 -19.976562 16.394531 -21.316406 15.5625 -22.265625 C 14.738281 -23.210938 13.617188 -23.6875 12.203125 -23.6875 L 9.796875 -23.6875 L 9.796875 -2.625 C 9.796875 -2 10.019531 -1.460938 10.46875 -1.015625 C 10.925781 -0.578125 11.46875 -0.359375 12.09375 -0.359375 L 12.5625 -0.359375 L 12.5625 0 L 1.625 0 L 1.625 -0.359375 L 2.09375 -0.359375 C 2.71875 -0.359375 3.25 -0.578125 3.6875 -1.015625 C 4.132812 -1.460938 4.367188 -2 4.390625 -2.625 L 4.390625 -22.75 C 4.390625 -23.351562 4.160156 -23.851562 3.703125 -24.25 C 3.253906 -24.644531 2.71875 -24.84375 2.09375 -24.84375 L 1.625 -24.84375 L 1.625 -25.203125 L 13.640625 -25.203125 C 16.566406 -25.203125 18.773438 -24.578125 20.265625 -23.328125 C 21.804688 -22.003906 22.578125 -20.226562 22.578125 -18 Z M 22.578125 -18" transform="translate(110.849 198.221)"/>
        <path d="M 25.421875 -0.359375 L 25.8125 -0.359375 L 25.8125 0 L 15.90625 0 L 15.90625 -0.359375 L 16.265625 -0.359375 C 16.816406 -0.359375 17.285156 -0.535156 17.671875 -0.890625 C 18.054688 -1.253906 18.25 -1.710938 18.25 -2.265625 L 18.25 -10.046875 L 8.78125 -10.046875 L 8.78125 -2.265625 C 8.800781 -1.710938 9.003906 -1.253906 9.390625 -0.890625 C 9.773438 -0.535156 10.234375 -0.359375 10.765625 -0.359375 L 11.15625 -0.359375 L 11.15625 0 L 1.21875 0 L 1.21875 -0.359375 L 1.625 -0.359375 C 2.175781 -0.359375 2.640625 -0.539062 3.015625 -0.90625 C 3.398438 -1.28125 3.59375 -1.734375 3.59375 -2.265625 L 3.59375 -19.328125 C 3.59375 -19.859375 3.398438 -20.304688 3.015625 -20.671875 C 2.640625 -21.046875 2.175781 -21.234375 1.625 -21.234375 L 1.21875 -21.234375 L 1.21875 -21.59375 L 11.15625 -21.59375 L 11.15625 -21.234375 L 10.765625 -21.234375 C 10.234375 -21.234375 9.773438 -21.050781 9.390625 -20.6875 C 9.003906 -20.332031 8.800781 -19.894531 8.78125 -19.375 L 8.78125 -11.484375 L 18.25 -11.484375 L 18.25 -19.328125 C 18.25 -20.078125 17.925781 -20.628906 17.28125 -20.984375 C 16.96875 -21.148438 16.628906 -21.234375 16.265625 -21.234375 L 15.90625 -21.234375 L 15.90625 -21.59375 L 25.8125 -21.59375 L 25.8125 -21.234375 L 25.421875 -21.234375 C 24.890625 -21.234375 24.429688 -21.050781 24.046875 -20.6875 C 23.660156 -20.332031 23.457031 -19.878906 23.4375 -19.328125 L 23.4375 -2.234375 C 23.457031 -1.484375 23.78125 -0.941406 24.40625 -0.609375 C 24.71875 -0.441406 25.054688 -0.359375 25.421875 -0.359375 Z M 25.421875 -0.359375" transform="translate(134.43 198.221)"/>
        <path d="M 1.265625 -10.796875 C 1.265625 -14.253906 2.421875 -16.992188 4.734375 -19.015625 C 7.046875 -21.046875 10.128906 -22.0625 13.984375 -22.0625 C 17.835938 -22.0625 20.925781 -21.046875 23.25 -19.015625 C 25.582031 -16.992188 26.75 -14.253906 26.75 -10.796875 C 26.75 -7.335938 25.582031 -4.59375 23.25 -2.5625 C 20.925781 -0.539062 17.84375 0.46875 14 0.46875 C 10.164062 0.46875 7.082031 -0.539062 4.75 -2.5625 C 2.425781 -4.59375 1.265625 -7.335938 1.265625 -10.796875 Z M 6.765625 -10.796875 C 6.765625 -7.773438 7.414062 -5.378906 8.71875 -3.609375 C 10.03125 -1.847656 11.785156 -0.96875 13.984375 -0.96875 C 16.179688 -0.96875 17.929688 -1.847656 19.234375 -3.609375 C 20.546875 -5.378906 21.203125 -7.773438 21.203125 -10.796875 C 21.203125 -13.828125 20.546875 -16.222656 19.234375 -17.984375 C 17.929688 -19.742188 16.179688 -20.625 13.984375 -20.625 C 11.785156 -20.625 10.03125 -19.742188 8.71875 -17.984375 C 7.414062 -16.222656 6.765625 -13.828125 6.765625 -10.796875 Z M 6.765625 -10.796875" transform="translate(161.43 198.221)"/>
        <path d="M 20.84375 -16.484375 L 20.84375 -16.8125 C 20.84375 -17.84375 20.550781 -18.65625 19.96875 -19.25 C 19.394531 -19.851562 18.59375 -20.171875 17.5625 -20.203125 L 13.390625 -20.203125 L 13.390625 -2.234375 C 13.410156 -1.703125 13.613281 -1.253906 14 -0.890625 C 14.382812 -0.535156 14.84375 -0.359375 15.375 -0.359375 L 15.765625 -0.359375 L 15.765625 0 L 5.828125 0 L 5.828125 -0.359375 L 6.1875 -0.359375 C 6.738281 -0.359375 7.207031 -0.535156 7.59375 -0.890625 C 7.976562 -1.253906 8.171875 -1.710938 8.171875 -2.265625 L 8.171875 -20.203125 L 4.03125 -20.203125 C 2.976562 -20.171875 2.160156 -19.851562 1.578125 -19.25 C 1.003906 -18.65625 0.71875 -17.84375 0.71875 -16.8125 L 0.71875 -16.484375 L 0.359375 -16.484375 L 0.359375 -22.171875 C 0.691406 -22.054688 1.25 -21.9375 2.03125 -21.8125 C 2.8125 -21.695312 3.515625 -21.640625 4.140625 -21.640625 L 17.421875 -21.640625 C 18.484375 -21.640625 19.351562 -21.71875 20.03125 -21.875 C 20.71875 -22.03125 21.109375 -22.128906 21.203125 -22.171875 L 21.203125 -16.484375 Z M 20.84375 -16.484375" transform="translate(189.401 198.221)"/>
        <path d="M 1.265625 -10.796875 C 1.265625 -14.253906 2.421875 -16.992188 4.734375 -19.015625 C 7.046875 -21.046875 10.128906 -22.0625 13.984375 -22.0625 C 17.835938 -22.0625 20.925781 -21.046875 23.25 -19.015625 C 25.582031 -16.992188 26.75 -14.253906 26.75 -10.796875 C 26.75 -7.335938 25.582031 -4.59375 23.25 -2.5625 C 20.925781 -0.539062 17.84375 0.46875 14 0.46875 C 10.164062 0.46875 7.082031 -0.539062 4.75 -2.5625 C 2.425781 -4.59375 1.265625 -7.335938 1.265625 -10.796875 Z M 6.765625 -10.796875 C 6.765625 -7.773438 7.414062 -5.378906 8.71875 -3.609375 C 10.03125 -1.847656 11.785156 -0.96875 13.984375 -0.96875 C 16.179688 -0.96875 17.929688 -1.847656 19.234375 -3.609375 C 20.546875 -5.378906 21.203125 -7.773438 21.203125 -10.796875 C 21.203125 -13.828125 20.546875 -16.222656 19.234375 -17.984375 C 17.929688 -19.742188 16.179688 -20.625 13.984375 -20.625 C 11.785156 -20.625 10.03125 -19.742188 8.71875 -17.984375 C 7.414062 -16.222656 6.765625 -13.828125 6.765625 -10.796875 Z M 6.765625 -10.796875" transform="translate(210.965 198.221)"/>
        <path d="M 1.796875 -3.34375 C 1.796875 -5.070312 2.171875 -6.550781 2.921875 -7.78125 L 3.234375 -7.78125 C 3.210938 -7.582031 3.203125 -7.390625 3.203125 -7.203125 C 3.203125 -5.546875 3.796875 -4.097656 4.984375 -2.859375 C 6.171875 -1.628906 7.796875 -1.015625 9.859375 -1.015625 C 11.472656 -1.015625 12.726562 -1.394531 13.625 -2.15625 C 14.519531 -2.925781 14.96875 -3.898438 14.96875 -5.078125 C 14.96875 -5.773438 14.742188 -6.398438 14.296875 -6.953125 C 13.859375 -7.503906 13.125 -8.113281 12.09375 -8.78125 L 5.828125 -12.921875 C 3.503906 -14.484375 2.34375 -16.40625 2.34375 -18.6875 C 2.34375 -18.925781 2.363281 -19.164062 2.40625 -19.40625 C 2.550781 -21.300781 3.289062 -22.820312 4.625 -23.96875 C 5.957031 -25.125 7.738281 -25.703125 9.96875 -25.703125 C 11.289062 -25.703125 12.925781 -25.582031 14.875 -25.34375 L 17.140625 -25.34375 L 16.671875 -20.046875 L 16.3125 -20.046875 C 16.3125 -21.296875 15.847656 -22.296875 14.921875 -23.046875 C 13.992188 -23.804688 12.765625 -24.1875 11.234375 -24.1875 C 9.359375 -24.1875 8 -23.613281 7.15625 -22.46875 C 6.726562 -21.914062 6.515625 -21.363281 6.515625 -20.8125 C 6.515625 -20.257812 6.625 -19.789062 6.84375 -19.40625 C 7.175781 -18.78125 7.90625 -18.109375 9.03125 -17.390625 L 15.90625 -12.921875 C 18.070312 -11.503906 19.15625 -9.65625 19.15625 -7.375 C 19.15625 -4.832031 18.285156 -2.882812 16.546875 -1.53125 C 14.804688 -0.175781 12.492188 0.5 9.609375 0.5 C 7.972656 0.5 6.46875 0.300781 5.09375 -0.09375 C 3.71875 -0.488281 2.703125 -1.019531 2.046875 -1.6875 C 1.878906 -2.144531 1.796875 -2.695312 1.796875 -3.34375 Z M 1.796875 -3.34375" transform="translate(238.937 198.221)"/>
        <path d="M 17.203125 -21.59375 L 27.328125 -21.59375 L 27.328125 -21.234375 L 26.71875 -21.234375 C 26.164062 -21.234375 25.703125 -21.066406 25.328125 -20.734375 C 24.953125 -20.398438 24.753906 -19.96875 24.734375 -19.4375 L 24.734375 -3.703125 C 24.734375 -2.210938 24.828125 -0.988281 25.015625 -0.03125 L 25.09375 0.46875 L 24.765625 0.46875 L 8.25 -14.109375 L 8.25 -2.203125 C 8.269531 -1.671875 8.460938 -1.226562 8.828125 -0.875 C 9.203125 -0.53125 9.664062 -0.359375 10.21875 -0.359375 L 10.84375 -0.359375 L 10.84375 0 L 0.75 0 L 0.75 -0.359375 L 1.328125 -0.359375 C 1.878906 -0.359375 2.347656 -0.53125 2.734375 -0.875 C 3.117188 -1.226562 3.3125 -1.671875 3.3125 -2.203125 L 3.3125 -18.03125 C 3.3125 -19.476562 3.21875 -20.664062 3.03125 -21.59375 L 2.953125 -22.109375 L 3.28125 -22.0625 L 19.765625 -7.5625 L 19.765625 -19.40625 C 19.765625 -19.9375 19.578125 -20.375 19.203125 -20.71875 C 18.828125 -21.0625 18.363281 -21.234375 17.8125 -21.234375 L 17.203125 -21.234375 Z M 17.203125 -21.59375" transform="translate(259.745 198.221)"/>
        <path d="M 23.96875 -0.359375 L 24.265625 -0.359375 L 24.265625 0 L 13.671875 0 L 13.671875 -0.359375 L 13.96875 -0.359375 C 14.445312 -0.359375 14.789062 -0.5 15 -0.78125 C 15.21875 -1.070312 15.328125 -1.335938 15.328125 -1.578125 C 15.328125 -1.816406 15.28125 -2.070312 15.1875 -2.34375 L 13.78125 -5.65625 L 6.15625 -5.65625 L 4.71875 -2.296875 C 4.613281 -2.054688 4.5625 -1.8125 4.5625 -1.5625 C 4.5625 -1.3125 4.675781 -1.046875 4.90625 -0.765625 C 5.132812 -0.492188 5.488281 -0.359375 5.96875 -0.359375 L 6.265625 -0.359375 L 6.265625 0 L -0.9375 0 L -0.9375 -0.359375 L -0.65625 -0.359375 C -0.144531 -0.359375 0.359375 -0.515625 0.859375 -0.828125 C 1.359375 -1.140625 1.765625 -1.609375 2.078125 -2.234375 L 9.53125 -18.21875 C 10.59375 -20.59375 11.144531 -22.054688 11.1875 -22.609375 L 11.515625 -22.609375 L 21.15625 -2.375 C 21.46875 -1.675781 21.878906 -1.164062 22.390625 -0.84375 C 22.910156 -0.519531 23.4375 -0.359375 23.96875 -0.359375 Z M 6.765625 -7.0625 L 13.171875 -7.0625 L 10 -14.578125 Z M 6.765625 -7.0625" transform="translate(287.79 198.221)"/>
        <path d="M 19.40625 -11.921875 C 18.207031 -9.828125 16.320312 -8.78125 13.75 -8.78125 C 12.476562 -8.78125 11.21875 -9.203125 9.96875 -10.046875 L 9.96875 -10.328125 C 12.375 -10.328125 13.910156 -11.550781 14.578125 -14 C 14.722656 -14.550781 14.796875 -15 14.796875 -15.34375 C 14.796875 -16.988281 14.398438 -18.207031 13.609375 -19 C 12.816406 -19.800781 11.757812 -20.203125 10.4375 -20.203125 L 8.8125 -20.203125 L 8.8125 -2.265625 C 8.84375 -1.492188 9.171875 -0.941406 9.796875 -0.609375 C 10.078125 -0.441406 10.398438 -0.359375 10.765625 -0.359375 L 11.203125 -0.359375 L 11.203125 0 L 1.265625 0 L 1.265625 -0.359375 L 1.6875 -0.359375 C 2.21875 -0.359375 2.664062 -0.535156 3.03125 -0.890625 C 3.40625 -1.253906 3.59375 -1.703125 3.59375 -2.234375 L 3.59375 -19.328125 C 3.59375 -19.878906 3.40625 -20.332031 3.03125 -20.6875 C 2.664062 -21.050781 2.207031 -21.234375 1.65625 -21.234375 L 1.21875 -21.234375 L 1.21875 -21.59375 L 11.875 -21.59375 C 14.632812 -21.59375 16.703125 -21.039062 18.078125 -19.9375 C 19.535156 -18.8125 20.265625 -17.265625 20.265625 -15.296875 C 20.265625 -14.046875 19.976562 -12.921875 19.40625 -11.921875 Z M 19.40625 -11.921875" transform="translate(310.973 198.221)"/>
    </g>
</svg>