<svg id="Layer_1" data-name="Layer 1"
    xmlns="http://www.w3.org/2000/svg"
    xmlns:xlink="http://www.w3.org/1999/xlink" viewBox="0 0 371.18 83.3">
    <defs>
        <style>.cls-1{fill:none;}.cls-2{clip-path:url(#clip-path);}.cls-3{fill:#00c2cb;}.cls-4{clip-path:url(#clip-path-2);}.cls-5{fill:#1b1a1e;}</style>
        <clipPath id="clip-path" transform="translate(0 0.02)">
            <rect class="cls-1" y="12.54" width="71.88" height="70.84"/>
        </clipPath>
        <clipPath id="clip-path-2" transform="translate(0 0.02)">
            <rect class="cls-1" x="22" width="28" height="6.54"/>
        </clipPath>
    </defs>
    <g class="cls-2">
        <path class="cls-3" d="M0,12.68V67.93H13.71V83.28L34.54,67.93H71.88V12.68Zm65.89,49.2H32.59L19.7,71.38v-9.5H6V18.73h59.9Z" transform="translate(0 0.02)"/>
    </g>
    <path class="cls-3" d="M35.94,55.32a15,15,0,1,0-14.88-15A15,15,0,0,0,35.94,55.32Zm0-24a9,9,0,1,1-8.89,9A8.95,8.95,0,0,1,35.94,31.33Z" transform="translate(0 0.02)"/>
    <g class="cls-4">
        <path class="cls-3" d="M22.27,0H49.61V6H22.27Z" transform="translate(0 0.02)"/>
    </g>
    <path class="cls-5" d="M118.39,32.23a9.87,9.87,0,0,1-.82,4,8.78,8.78,0,0,1-5.8,5,7.3,7.3,0,0,1-2.3.42,10.39,10.39,0,0,1-5.84-1.7v-.47a6.87,6.87,0,0,0,5.56-2.25A7.57,7.57,0,0,0,111,31.9a7.51,7.51,0,0,0-1.59-5.12,5.4,5.4,0,0,0-4.3-1.82h-3.07V51.87a2.75,2.75,0,0,0,.87,2.06,2.88,2.88,0,0,0,2.06.85h.6v.45h-14v-.45h.61a2.78,2.78,0,0,0,2-.85,3,3,0,0,0,.91-2.06V26.15a2.37,2.37,0,0,0-.88-1.89,3,3,0,0,0-2.06-.77h-.61V23H107c3.74,0,6.55.79,8.45,2.39A8.5,8.5,0,0,1,118.39,32.23Z" transform="translate(0 0.02)"/>
    <path class="cls-5" d="M152.15,54.78h.52v.45H140v-.45h.47a2.5,2.5,0,0,0,1.78-.69,2.3,2.3,0,0,0,.75-1.75V42.4H130.9v9.94a2.51,2.51,0,0,0,2.53,2.44H134v.45h-12.7v-.45h.5a2.47,2.47,0,0,0,1.79-.72,2.32,2.32,0,0,0,.74-1.72V30.53a2.29,2.29,0,0,0-.74-1.72,2.47,2.47,0,0,0-1.79-.72h-.5v-.45H134v.45h-.52a2.46,2.46,0,0,0-1.75.69,2.38,2.38,0,0,0-.78,1.7V40.56H143v-10a2.26,2.26,0,0,0-1.25-2.11,2.6,2.6,0,0,0-1.28-.33H140v-.45h12.66v.45h-.52a2.5,2.5,0,0,0-1.75.69,2.39,2.39,0,0,0-.76,1.75V52.37a2.24,2.24,0,0,0,1.23,2.08A2.6,2.6,0,0,0,152.15,54.78Z" transform="translate(0 0.02)"/>
    <path class="cls-5" d="M155.79,41.43a13.26,13.26,0,0,1,4.44-10.51Q164.67,27,172,27t11.85,3.89a13.25,13.25,0,0,1,4.47,10.51A13.27,13.27,0,0,1,183.89,52q-4.45,3.87-11.81,3.87T160.25,52A13.27,13.27,0,0,1,155.79,41.43Zm7,0q0,5.81,2.5,9.19a8.38,8.38,0,0,0,13.43,0q2.52-3.39,2.52-9.19t-2.52-9.17a8.35,8.35,0,0,0-13.43,0Q162.82,35.64,162.83,41.43Z" transform="translate(0 0.02)"/>
    <path class="cls-5" d="M216.57,34.17v-.43a4.31,4.31,0,0,0-1.11-3.12,4.2,4.2,0,0,0-3.08-1.2H207V52.37a2.51,2.51,0,0,0,2.53,2.41h.5v.45H197.38v-.45h.46a2.52,2.52,0,0,0,1.79-.69,2.33,2.33,0,0,0,.74-1.75V29.42h-5.28a4.26,4.26,0,0,0-3.14,1.2,4.35,4.35,0,0,0-1.1,3.12v.43h-.47V26.89a13.37,13.37,0,0,0,2.14.46,17.27,17.27,0,0,0,2.71.24h17a15.23,15.23,0,0,0,3.32-.3,13.6,13.6,0,0,0,1.5-.4v7.28Z" transform="translate(0 0.02)"/>
    <path class="cls-5" d="M219.09,41.43a13.26,13.26,0,0,1,4.44-10.51Q228,27,235.34,27t11.85,3.89a13.25,13.25,0,0,1,4.47,10.51A13.27,13.27,0,0,1,247.19,52q-4.45,3.87-11.81,3.87T223.55,52A13.27,13.27,0,0,1,219.09,41.43Zm7,0q0,5.81,2.5,9.19a8.38,8.38,0,0,0,13.43,0q2.52-3.39,2.52-9.19t-2.52-9.17a8.35,8.35,0,0,0-13.43,0Q226.13,35.64,226.13,41.43Z" transform="translate(0 0.02)"/>
    <path class="cls-5" d="M255.53,51A10.69,10.69,0,0,1,257,45.29h.42a6.27,6.27,0,0,0-.05.74,7.77,7.77,0,0,0,2.27,5.54A8.23,8.23,0,0,0,265.84,54a7.17,7.17,0,0,0,4.8-1.47,4.74,4.74,0,0,0,1.73-3.74,3.75,3.75,0,0,0-.86-2.39A12.28,12.28,0,0,0,268.68,44l-8-5.3c-3-2-4.47-4.44-4.47-7.36a4.88,4.88,0,0,1,.1-.92,8.24,8.24,0,0,1,2.83-5.83A10.08,10.08,0,0,1,266,22.39a54,54,0,0,1,6.27.45h2.89l-.59,6.76h-.46a4.65,4.65,0,0,0-1.78-3.82,7.16,7.16,0,0,0-4.7-1.46q-3.6,0-5.2,2.21a3.4,3.4,0,0,0-.83,2.12,3.63,3.63,0,0,0,.4,1.78A8,8,0,0,0,264.78,33l8.78,5.7q4.14,2.73,4.14,7.08a8.92,8.92,0,0,1-3.35,7.49q-3.32,2.59-8.84,2.59a21.22,21.22,0,0,1-5.78-.75,8.66,8.66,0,0,1-3.88-2A6.27,6.27,0,0,1,255.53,51Z" transform="translate(0 0.02)"/>
    <path class="cls-5" d="M301.8,27.64h12.93v.45H314a2.55,2.55,0,0,0-1.77.64,2.22,2.22,0,0,0-.75,1.66v20.1a25.09,25.09,0,0,0,.36,4.69l.09.64h-.42L290.35,37.2V52.42a2.35,2.35,0,0,0,.75,1.68,2.5,2.5,0,0,0,1.78.68h.78v.45H280.79v-.45h.73a2.57,2.57,0,0,0,1.8-.68,2.15,2.15,0,0,0,.73-1.68V32.18a22.65,22.65,0,0,0-.37-4.54l-.09-.66L284,27l21.06,18.54V30.43a2.17,2.17,0,0,0-.72-1.67,2.49,2.49,0,0,0-1.76-.67h-.79Z" transform="translate(0 0.02)"/>
    <path class="cls-5" d="M346.3,54.78h.36v.45H333.14v-.45h.36a1.55,1.55,0,0,0,1.33-.55,1.77,1.77,0,0,0,.42-1,2.69,2.69,0,0,0-.19-1L333.28,48h-9.76l-1.83,4.28a2.39,2.39,0,0,0-.19.94,1.57,1.57,0,0,0,.44,1,1.64,1.64,0,0,0,1.36.54h.36v.45h-9.19v-.45h.36a3.66,3.66,0,0,0,1.94-.6,4.37,4.37,0,0,0,1.56-1.81L327.84,32A27.41,27.41,0,0,0,330,26.34h.4L342.7,52.2a4.3,4.3,0,0,0,1.58,1.95A3.76,3.76,0,0,0,346.3,54.78Zm-22-8.57h8.19l-4.06-9.61Z" transform="translate(0 0.02)"/>
    <path class="cls-5" d="M370.08,40a7.73,7.73,0,0,1-7.22,4A8.59,8.59,0,0,1,358,42.4V42c3.07,0,5-1.57,5.89-4.69a7.38,7.38,0,0,0,.28-1.7A6.39,6.39,0,0,0,362.67,31a5.44,5.44,0,0,0-4-1.53h-2.08V52.34a2.28,2.28,0,0,0,1.25,2.11,2.31,2.31,0,0,0,1.23.33h.56v.45h-12.7v-.45h.55a2.38,2.38,0,0,0,1.72-.69,2.35,2.35,0,0,0,.72-1.72V30.53a2.35,2.35,0,0,0-.72-1.75,2.43,2.43,0,0,0-1.77-.69h-.55v-.45h13.63q5.28,0,7.91,2.1a7.1,7.1,0,0,1,2.79,5.94A8.62,8.62,0,0,1,370.08,40Z" transform="translate(0 0.02)"/>
</svg>