<svg version="1.1" id="photosnapLogo"
	xmlns="http://www.w3.org/2000/svg"
	xmlns:xlink="http://www.w3.org/1999/xlink" x="0px" y="0px" viewBox="0 0 369.8 90.8" xml:space="preserve">

	<defs>
		<style>
			.st1 {fill:#00C2CB;}
			.st3 {fill:#1B1A1E;}
		</style>
	</defs>

	<g>
		<path class="st1" d="M0,13.8V74h15v16.7L37.8,74h40.9V13.8H0z M72.2,67.4H35.7L21.6,77.7V67.4h-15v-47h65.6V67.4z"/>
		<path class="st1" d="M39.4,60.2c9,0,16.3-7.3,16.3-16.3c0-9-7.3-16.3-16.3-16.3s-16.3,7.3-16.3,16.3C23.1,52.9,30.4,60.2,39.4,60.2zM39.4,34.1c5.4,0,9.7,4.4,9.7,9.8c0,5.4-4.4,9.8-9.7,9.8s-9.7-4.4-9.7-9.8C29.6,38.5,34,34.1,39.4,34.1z"/>
		<path class="st1" d="M24.4,0h29.9v6.6H24.4V0z"/>
	</g>
	<g>
		<path class="st3" d="M108.9,45.3c1.4,0,2.6-0.5,3.5-1.6c0.9-1,1.4-2.7,1.4-5.1c0-2.3-0.5-4.2-1.5-5.5c-1-1.4-2.5-2-4.6-2
				c-0.6,0-1.3,0.1-2,0.3v19.3c0,1.3,0.1,2.3,0.4,3c0.3,0.7,0.8,1.2,1.4,1.5c0.6,0.3,1.5,0.5,2.7,0.6c0.2,0.6,0.3,1.5,0.3,2.8
				c-1.6-0.1-4-0.1-7.3-0.1c-3.5,0-6,0-7.6,0.1c0-1.3,0.1-2.2,0.3-2.8c0.8-0.1,1.5-0.2,1.9-0.5c0.4-0.3,0.7-0.7,0.9-1.3
				c0.2-0.6,0.3-1.5,0.3-2.8v-16c0-1.2-0.1-2.1-0.2-2.7c-0.2-0.6-0.5-1-0.9-1.2c-0.4-0.2-1-0.4-1.9-0.5c-0.2-0.7-0.3-1.6-0.3-2.8
				c2.6,0.1,4.8,0.1,6.8,0.1l4.6,0c0.8,0,1.7,0,2.8,0c7.4,0,11.2,3,11.2,9c0,2.1-0.4,3.9-1.2,5.6c-0.8,1.7-2.1,3-3.7,3.9
				c-1.6,0.9-3.6,1.4-5.8,1.4c-1.3,0-2.3-0.1-3.1-0.5c-0.1-0.5-0.1-0.8-0.1-1c0-0.7,0.1-1.2,0.3-1.7
				C107.7,45.2,108.3,45.3,108.9,45.3z"/>
	</g>
	<g>
		<path class="st3" d="M152.1,51.4c0,1.2,0.1,2.1,0.2,2.8c0.2,0.6,0.5,1,0.9,1.3c0.4,0.2,1,0.4,1.9,0.5c0.2,0.6,0.3,1.5,0.3,2.8
				c-1.6-0.1-3.7-0.1-6.3-0.1c-2.9,0-5.3,0-7.1,0.1c0-1.1,0.1-2.1,0.4-2.8c0.8-0.1,1.4-0.2,1.8-0.5c0.4-0.3,0.7-0.7,0.9-1.3
				c0.2-0.6,0.2-1.5,0.2-2.8v-7c-5.1,0-8.8,0.1-10.9,0.4v6.6c0,1.2,0.1,2.1,0.3,2.8c0.2,0.6,0.5,1,0.9,1.3c0.4,0.2,1,0.4,1.9,0.5
				c0.2,0.6,0.3,1.6,0.3,2.8c-1.5-0.1-3.6-0.1-6.3-0.1c-2.9,0-5.2,0-7.1,0.1c0-1.1,0.1-2,0.3-2.8c0.8-0.1,1.5-0.2,1.9-0.5
				c0.4-0.3,0.7-0.7,0.9-1.3c0.2-0.6,0.2-1.5,0.2-2.8v-16c0-1.2-0.1-2.1-0.2-2.7c-0.2-0.6-0.5-1-0.9-1.2c-0.4-0.2-1-0.4-1.9-0.5
				c-0.2-0.7-0.3-1.6-0.3-2.8c1.5,0.1,3.8,0.1,6.8,0.1c2.6,0,4.8,0,6.6-0.1c0,0.5,0,1,0,1.5c0,0.5-0.1,0.9-0.3,1.3
				c-0.8,0.1-1.5,0.3-1.9,0.5c-0.4,0.2-0.7,0.6-0.9,1.2c-0.2,0.6-0.2,1.5-0.2,2.7v6.1h10.9v-6.1c0-1.2-0.1-2.1-0.2-2.7
				c-0.2-0.6-0.5-1-0.9-1.2c-0.4-0.2-1-0.4-1.9-0.5c-0.2-0.7-0.3-1.6-0.3-2.8c1.6,0.1,3.9,0.1,6.8,0.1c2.6,0,4.8,0,6.6-0.1
				c0,1.2-0.1,2.1-0.4,2.8c-0.8,0.1-1.5,0.3-1.9,0.5c-0.4,0.2-0.7,0.6-0.8,1.2c-0.2,0.6-0.2,1.5-0.2,2.7V51.4z"/>
	</g>
	<g>
		<path class="st3" d="M173.9,59c-3,0-5.7-0.7-8-2c-2.3-1.3-4-3.2-5.3-5.5c-1.2-2.4-1.8-5.1-1.8-8.1c0-3.1,0.6-5.8,1.9-8.1
				c1.3-2.3,3.1-4.1,5.4-5.4c2.3-1.3,4.9-1.9,7.8-1.9c3,0,5.6,0.6,7.9,1.9c2.3,1.2,4.1,3,5.4,5.3c1.3,2.3,1.9,4.9,1.9,7.9
				c0,3.1-0.6,5.8-1.9,8.2c-1.3,2.4-3,4.3-5.4,5.7C179.5,58.3,176.9,59,173.9,59z M174.6,56.1c2.3,0,4.1-1.1,5.4-3.3
				c1.3-2.2,2-5.1,2-8.7c0-2.4-0.4-4.7-1.1-6.7c-0.7-2-1.8-3.6-3.1-4.8c-1.3-1.2-2.9-1.8-4.5-1.8c-2.2,0-4,1-5.3,3.1
				c-1.3,2-2,4.8-2,8.4c0,2.5,0.3,4.8,1,6.9c0.7,2.1,1.6,3.8,2.9,5C171.2,55.4,172.8,56.1,174.6,56.1z"/>
	</g>
	<g>
		<path class="st3" d="M218.3,28.2c-0.1,2.3,0.2,5,0.7,7.9c-0.9,0.4-2.1,0.6-3.6,0.6c-0.2-2-0.8-3.4-1.5-4.3
				c-0.8-0.9-1.9-1.3-3.5-1.3h-1.6v20.3c0,1.2,0.1,2.2,0.3,2.8c0.2,0.6,0.6,1,1.1,1.3c0.5,0.2,1.4,0.4,2.5,0.5
				c0.2,0.6,0.4,1.5,0.4,2.8c-1.7-0.1-4.2-0.1-7.4-0.1c-3.8,0-6.5,0-8.3,0.1c0-1,0.1-2,0.4-2.8c1.2-0.1,2-0.2,2.6-0.5
				c0.6-0.3,1-0.7,1.2-1.3c0.2-0.6,0.4-1.5,0.4-2.8V31.1h-1c-1.8,0-3,0.4-3.8,1.3c-0.8,0.9-1.4,2.3-1.8,4.3c-1.6,0-2.8-0.2-3.5-0.6
				c0.3-1.3,0.5-2.6,0.7-4.1c0.2-1.4,0.3-2.7,0.3-3.8c2.1,0.1,6.4,0.1,12.8,0.1C210.9,28.3,215.1,28.3,218.3,28.2z"/>
	</g>
	<g>
		<path class="st3" d="M236.8,59c-3,0-5.7-0.7-8-2c-2.3-1.3-4-3.2-5.3-5.5c-1.2-2.4-1.8-5.1-1.8-8.1c0-3.1,0.6-5.8,1.9-8.1
				c1.3-2.3,3.1-4.1,5.4-5.4c2.3-1.3,4.9-1.9,7.8-1.9c3,0,5.6,0.6,7.9,1.9c2.3,1.2,4.1,3,5.4,5.3c1.3,2.3,1.9,4.9,1.9,7.9
				c0,3.1-0.6,5.8-1.9,8.2c-1.3,2.4-3,4.3-5.4,5.7C242.4,58.3,239.7,59,236.8,59z M237.5,56.1c2.3,0,4.1-1.1,5.4-3.3
				c1.3-2.2,2-5.1,2-8.7c0-2.4-0.4-4.7-1.1-6.7c-0.7-2-1.8-3.6-3.1-4.8c-1.3-1.2-2.9-1.8-4.5-1.8c-2.2,0-4,1-5.3,3.1
				c-1.3,2-2,4.8-2,8.4c0,2.5,0.3,4.8,1,6.9c0.7,2.1,1.6,3.8,2.9,5C234,55.4,235.6,56.1,237.5,56.1z"/>
	</g>
	<g>
		<path class="st3" d="M265.7,59c-1.9,0-3.6-0.2-5.3-0.7c-1.6-0.4-3.2-1.1-4.9-2c0.4-1.8,0.5-4.2,0.5-7c1-0.3,2.4-0.4,4.1-0.4
				c0.1,2.6,0.6,4.5,1.4,5.5c0.8,1.1,2.2,1.6,4.2,1.6c1.7,0,2.9-0.3,3.7-1c0.8-0.7,1.2-1.6,1.2-2.7c0-0.8-0.2-1.6-0.8-2.2
				c-0.5-0.6-1.1-1.1-1.9-1.6c-0.8-0.4-1.8-1-3.1-1.6c-1.9-0.9-3.4-1.7-4.6-2.4c-1.2-0.8-2.2-1.8-3-3.1c-0.8-1.3-1.2-2.9-1.2-4.8
				c0-2.9,0.9-5,2.8-6.5c1.8-1.5,4.3-2.2,7.3-2.2c1.6,0,3.2,0.2,4.8,0.6c1.6,0.4,2.8,0.8,3.6,1.4c0,2.8,0.1,5,0.3,6.4
				c-0.5,0.2-1.1,0.4-1.8,0.5c-0.7,0.1-1.4,0.2-2.2,0.2c-0.4-2.4-1-4-1.9-4.9c-0.8-0.9-1.9-1.3-3.3-1.3c-1.2,0-2.2,0.3-3,0.9
				c-0.7,0.6-1.1,1.4-1.1,2.5c0,0.9,0.3,1.7,0.8,2.3c0.6,0.7,1.2,1.2,2,1.7c0.8,0.5,1.9,1,3.4,1.7c1.9,0.9,3.5,1.7,4.6,2.5
				c1.2,0.7,2.2,1.7,3,3c0.8,1.2,1.2,2.8,1.2,4.6c0,2.7-1,4.8-2.9,6.5C272.1,58.1,269.3,59,265.7,59z"/>
	</g>
	<g>
		<path class="st3" d="M304.8,28.3c1.9,0,3.4,0,4.5-0.1c0,1.1-0.1,2-0.3,2.8c-0.8,0.1-1.3,0.3-1.7,0.6c-0.4,0.4-0.7,1-0.8,1.9
				c-0.1,0.9-0.2,2.2-0.2,3.9v21.2c-0.8,0.2-1.8,0.4-3.1,0.4l-16.7-22.2v12.7c0,1.7,0.1,3,0.3,3.9c0.2,0.9,0.5,1.5,1,1.9
				c0.5,0.4,1.2,0.6,2.1,0.6c0.2,0.6,0.3,1.5,0.3,2.8c-1.3-0.1-2.9-0.1-5-0.1c-2.3,0-4.1,0-5.2,0.1c0-1.3,0.1-2.2,0.3-2.8
				c0.9-0.1,1.6-0.3,2.1-0.7c0.5-0.4,0.8-1,1-1.9c0.2-0.9,0.3-2.2,0.3-3.9V32.9l-0.5-0.6c-0.3-0.4-0.7-0.8-1.1-0.9
				c-0.4-0.2-1-0.3-1.9-0.4c-0.2-0.7-0.3-1.7-0.3-2.8c1.1,0.1,2.7,0.1,4.8,0.1c2.1,0,3.5,0,4.2-0.1l14.5,19.6V37.4
				c0-1.7-0.1-3-0.3-3.9c-0.2-0.9-0.5-1.5-1-1.8c-0.5-0.4-1.2-0.6-2.2-0.7c-0.2-0.8-0.3-1.8-0.3-2.8C301,28.3,302.7,28.3,304.8,28.3
				z"/>
	</g>
	<g>
		<path class="st3" d="M341.5,55.9c0.2,0.8,0.4,1.7,0.4,2.8c-1.4-0.1-3.5-0.1-6.2-0.1c-3.1,0-5.3,0-6.6,0.1c0-1.2,0.1-2.1,0.3-2.8
				c0.7-0.1,1.2-0.3,1.6-0.5c0.3-0.2,0.5-0.6,0.5-1c0-0.4-0.2-1-0.6-1.9l-1-2.4c-4,0-7.6,0.1-10.9,0.3l-0.6,1.5
				c-0.3,0.8-0.4,1.5-0.4,2c0,1.2,0.7,1.9,2.1,2.1c0.2,0.7,0.3,1.6,0.3,2.8c-1-0.1-2.6-0.1-4.8-0.1c-1.8,0-3.2,0-4,0.1
				c0-1.1,0.1-2,0.3-2.8c0.8-0.1,1.4-0.5,1.8-1.1c0.5-0.6,1.1-1.8,1.8-3.6l9.4-23c0.4-0.1,0.8-0.1,1.3-0.2c0.4,0,0.9,0,1.4,0
				L337.8,51c0.6,1.4,1.1,2.4,1.5,3.1c0.4,0.7,0.7,1.1,1,1.4C340.7,55.7,341.1,55.9,341.5,55.9z M328.8,47.6l-2.4-5.6
				c-0.8-1.8-1.5-3.6-2.1-5.7c-0.6,2-1.2,3.9-2,5.7l-2.2,5.7H328.8z"/>
	</g>
	<g>
		<path class="st3" d="M357.8,45.3c1.4,0,2.6-0.5,3.5-1.6c0.9-1,1.4-2.7,1.4-5.1c0-2.3-0.5-4.2-1.5-5.5c-1-1.4-2.5-2-4.6-2
				c-0.6,0-1.3,0.1-2,0.3v19.3c0,1.3,0.1,2.3,0.4,3c0.3,0.7,0.8,1.2,1.4,1.5c0.6,0.3,1.5,0.5,2.7,0.6c0.2,0.6,0.3,1.5,0.3,2.8
				c-1.6-0.1-4-0.1-7.3-0.1c-3.5,0-6,0-7.6,0.1c0-1.3,0.1-2.2,0.3-2.8c0.8-0.1,1.5-0.2,1.9-0.5c0.4-0.3,0.7-0.7,0.9-1.3
				c0.2-0.6,0.3-1.5,0.3-2.8v-16c0-1.2-0.1-2.1-0.2-2.7c-0.2-0.6-0.5-1-0.9-1.2c-0.4-0.2-1-0.4-1.9-0.5c-0.2-0.7-0.3-1.6-0.3-2.8
				c2.6,0.1,4.8,0.1,6.8,0.1l4.6,0c0.8,0,1.7,0,2.8,0c7.4,0,11.2,3,11.2,9c0,2.1-0.4,3.9-1.2,5.6c-0.8,1.7-2.1,3-3.7,3.9
				c-1.6,0.9-3.6,1.4-5.8,1.4c-1.3,0-2.3-0.1-3.1-0.5c-0.1-0.5-0.1-0.8-0.1-1c0-0.7,0.1-1.2,0.3-1.7
				C356.6,45.2,357.2,45.3,357.8,45.3z"/>
	</g>
</svg>
